<?xml version="1.0" encoding="utf-8"?>
<!-- Svg Vector Icons : http://www.onlinewebfonts.com/icon -->
<!DOCTYPE svg PUBLIC "-//W3C//DTD SVG 1.1//EN" "http://www.w3.org/Graphics/SVG/1.1/DTD/svg11.dtd">
<svg version="1.1" xmlns="http://www.w3.org/2000/svg" xmlns:xlink="http://www.w3.org/1999/xlink" x="0px" y="0px" viewBox="0 0 1000 1000" enable-background="new 0 0 1000 1000" xml:space="preserve">
<metadata> Svg Vector Icons : http://www.onlinewebfonts.com/icon </metadata>
<g><path d="M990,500c0-270.6-219.4-490-490-490C229.4,10,10,229.4,10,500c0,270.6,219.4,490,490,490C770.6,990,990,770.6,990,500L990,500z M32.1,500C32.1,241.6,241.6,32.1,500,32.1c258.4,0,467.9,209.5,467.9,467.9c0,258.4-209.5,467.9-467.9,467.9C241.6,967.9,32.1,758.4,32.1,500L32.1,500z M366.8,502.8l247-248.3l16.7,16.7L400.1,502.8l230.3,231.6l-16.6,16.7L366.8,502.8L366.8,502.8z"/></g>
</svg>