<svg xmlns="http://www.w3.org/2000/svg" viewBox="0 0 50 50" enable-background="new 0 0 50 50" width="100" height="100">
    <path style="text-indent:0;text-align:start;line-height:normal;text-transform:none;block-progression:tb;-inkscape-font-specification:Bitstream Vera Sans" d="M 10 0 C 6.6761905 0 4 2.6761905 4 6 L 4 44 C 4 47.32381 6.6761905 50 10 50 L 46 50 L 46 48 L 10 48 C 7.7238095 48 6 46.27619 6 44 C 6 41.72381 7.7238095 40 10 40 L 45 40 L 46 40 L 46 39 L 46 1 L 46 0 L 45 0 L 10 0 z M 10 2 L 44 2 L 44 38 L 10 38 C 8.4446946 38 7.0638638 38.629648 6 39.59375 L 6 6 C 6 3.7238095 7.7238095 2 10 2 z M 25 7 L 25 9 L 27 9 L 27 7 L 25 7 z M 25 11 L 25 13 L 27 13 L 27 11 L 25 11 z M 25 15 L 25 17 L 27 17 L 27 15 L 25 15 z M 25 19 L 25 29.5625 L 20.71875 25.28125 L 19.28125 26.71875 L 25.28125 32.71875 A 1.0001 1.0001 0 0 0 26.71875 32.71875 L 32.71875 26.71875 L 31.28125 25.28125 L 27 29.5625 L 27 19 L 25 19 z"/>
</svg>