<svg xmlns="http://www.w3.org/2000/svg" viewBox="0 0 50 50" enable-background="new 0 0 50 50" width="100" height="100">
    <path style="text-indent:0;text-align:start;line-height:normal;text-transform:none;block-progression:tb;-inkscape-font-specification:Bitstream Vera Sans" d="M 29.8125 0 L 28.75 2.09375 C 28.275297 2.0341377 27.796618 2 27.3125 2 C 25.683681 2 24.07993 2.4035327 22.625 3.09375 L 20.1875 0.5 L 20.71875 4.21875 C 19.180273 5.3686592 17.977075 6.916997 17.34375 8.71875 L 13.59375 8.8125 L 16.875 11.03125 C 16.649942 13.113491 16.453922 15.507684 16.375 18.09375 L 14.40625 18.5 L 16.34375 19.34375 C 16.340124 19.626432 16.3125 19.901568 16.3125 20.1875 C 16.3125 21.479977 16.375658 22.787409 16.46875 24.09375 C 14.933018 22.696231 14.09375 20.323782 14.09375 17.5 L 14.09375 17.46875 C 14.065034 16.750856 13.894069 16.066709 13.625 15.4375 L 15.09375 13.1875 L 12.59375 13.875 C 11.618823 12.785892 10.273334 12.061074 8.71875 12 L 6.90625 8.6875 L 6.53125 12.375 C 4.6912673 13.088122 3.328994 14.763854 3.0625 16.78125 L 0.09375 17 L 3.0625 18.8125 C 3.2193894 20.466217 3.6666857 21.995932 4.34375 23.40625 L 2.1875 26.1875 L 5.375 25.1875 C 6.0828622 26.24607 6.9086501 27.209654 7.84375 28.0625 C 7.8822564 28.097619 7.9299236 28.121491 7.96875 28.15625 L 7 30.59375 L 9.25 29.1875 C 10.469827 30.087532 11.795993 30.826226 13.1875 31.40625 L 13.1875 34.3125 L 14.8125 32 C 15.731217 32.291232 16.660419 32.5372 17.59375 32.6875 C 17.808813 33.836322 18.038882 34.947544 18.28125 36.03125 L 15.09375 38 L 18.8125 38.3125 C 19.270881 40.167917 19.748138 41.860771 20.1875 43.34375 L 17 45.5 L 20.875 45.5625 C 21.593326 47.804209 22.15625 49.34375 22.15625 49.34375 L 22.40625 50 L 23.09375 50 L 34.59375 50 L 35.6875 50 L 35.59375 48.90625 C 35.59375 48.90625 35.515632 47.784949 35.4375 45.9375 L 38.8125 45.09375 L 35.375 43.78125 C 35.355327 43.010118 35.320384 42.235514 35.3125 41.3125 C 37.239591 40.844467 39.182446 40.141985 40.9375 39.125 L 43.90625 41.6875 L 42.875 37.8125 C 42.89789 37.794139 42.914729 37.768501 42.9375 37.75 C 43.913139 36.957293 44.763113 36.009054 45.4375 34.9375 L 49.40625 35.5 L 46.46875 32.75 C 46.800099 31.750851 47 30.673448 47 29.5 C 47 28.998718 46.905458 28.515061 46.75 28.0625 L 49.1875 25.3125 L 45.46875 26.15625 C 44.73889 25.506779 43.806362 25.097103 42.78125 25.03125 L 41.09375 22 L 40.71875 25.34375 C 39.120154 26.038376 38 27.663512 38 29.5 C 38 30.661905 37.608986 31.506201 36.9375 32.25 C 36.539566 32.690788 36.026146 33.063308 35.4375 33.40625 C 35.501315 31.873993 35.60087 30.216107 35.71875 28.5 L 38.1875 27.8125 L 35.84375 26.90625 C 35.928401 25.810486 36.014127 24.722215 36.125 23.5625 L 39.5 22.8125 L 36.34375 21.5 C 36.477186 20.24775 36.613654 18.972233 36.78125 17.65625 L 39.90625 17.3125 L 37.0625 15.6875 C 37.171004 14.901071 37.253291 14.15007 37.375 13.34375 C 37.443807 12.854457 37.49129 12.37226 37.5 11.90625 L 40.8125 11.09375 L 37.34375 9.8125 C 37.078873 8.3591469 36.485748 7.0844777 35.6875 6 L 37.40625 3.6875 L 34.4375 4.65625 C 33.236501 3.5768754 31.795244 2.7909108 30.21875 2.375 L 29.8125 0 z M 27.3125 4 C 29.66891 4 31.910424 4.8681874 33.4375 6.40625 C 34.964576 7.9443126 35.818311 10.13229 35.40625 13.0625 C 32.365072 33.210307 33.434114 46.503865 33.5625 48 L 23.8125 48 C 23.432827 46.975475 18.3125 32.930822 18.3125 20.1875 C 18.3125 16.744643 18.608046 13.496339 18.90625 10.8125 C 19.33827 7.0107237 23.301389 4 27.3125 4 z M 8.5 14 C 10.456041 14 11.99879 15.526266 12.09375 17.5 C 12.09375 17.5106 12.093729 17.52065 12.09375 17.53125 C 12.101637 21.469356 13.578768 25.164054 16.71875 26.71875 C 16.864047 28.023522 17.012132 29.322094 17.21875 30.59375 C 14.312671 29.991682 11.410796 28.590228 9.1875 26.5625 C 6.6553653 24.253099 5 21.195833 5 17.5 C 5 15.533333 6.5333333 14 8.5 14 z M 42.5 27 C 43.838596 27 45 28.161404 45 29.5 C 45 32.442308 43.681825 34.57297 41.65625 36.21875 C 39.903055 37.643221 37.61092 38.631017 35.28125 39.25 C 35.287696 38.175732 35.341215 36.947696 35.375 35.71875 C 36.531518 35.200222 37.603175 34.517926 38.4375 33.59375 C 39.391014 32.537549 40 31.138095 40 29.5 C 40 28.161404 41.161404 27 42.5 27 z"/>
</svg>