<svg xmlns="http://www.w3.org/2000/svg" viewBox="0 0 50 50" enable-background="new 0 0 50 50" width="100" height="100">
    <path style="text-indent:0;text-align:start;line-height:normal;text-transform:none;block-progression:tb;-inkscape-font-specification:Bitstream Vera Sans" d="M 11 0 C 10.477778 0 9.9395305 0.18546949 9.5625 0.5625 C 9.1854695 0.93953051 9 1.4777778 9 2 L 9 4 L 2 4 C 1.4777778 4 0.93953051 4.1854695 0.5625 4.5625 C 0.18546949 4.9395305 0 5.4777778 0 6 L 0 48 C 0 48.522222 0.18546949 49.060469 0.5625 49.4375 C 0.93953051 49.814531 1.4777778 50 2 50 L 48 50 C 48.522222 50 49.060469 49.814531 49.4375 49.4375 C 49.814531 49.060469 50 48.522222 50 48 L 50 6 C 50 5.4777778 49.814531 4.9395305 49.4375 4.5625 C 49.060469 4.1854695 48.522222 4 48 4 L 41 4 L 41 2 C 41 1.4777778 40.814531 0.93953051 40.4375 0.5625 C 40.060469 0.18546949 39.522222 0 39 0 L 37 0 C 36.477778 0 35.939531 0.18546949 35.5625 0.5625 C 35.185469 0.93953051 35 1.4777778 35 2 L 35 4 L 15 4 L 15 2 C 15 1.4777778 14.814531 0.93953051 14.4375 0.5625 C 14.060469 0.18546949 13.522222 0 13 0 L 11 0 z M 11 2 L 13 2 L 13 8 L 11 8 L 11 2 z M 37 2 L 39 2 L 39 8 L 37 8 L 37 2 z M 2 6 L 9 6 L 9 8 C 9 8.5222222 9.1854695 9.0604695 9.5625 9.4375 C 9.9395305 9.8145305 10.477778 10 11 10 L 13 10 C 13.522222 10 14.060469 9.8145305 14.4375 9.4375 C 14.814531 9.0604695 15 8.5222222 15 8 L 15 6 L 35 6 L 35 8 C 35 8.5222222 35.185469 9.0604695 35.5625 9.4375 C 35.939531 9.8145305 36.477778 10 37 10 L 39 10 C 39.522222 10 40.060469 9.8145305 40.4375 9.4375 C 40.814531 9.0604695 41 8.5222222 41 8 L 41 6 L 48 6 L 48 14 L 2 14 L 2 6 z M 2 16 L 48 16 L 48 48 L 2 48 L 2 16 z M 19 22.6875 L 19 24.8125 L 28.6875 24.8125 C 27.6875 25.8125 22.00625 31.8125 21.40625 40.8125 L 23.90625 40.8125 C 24.90625 30.7125 30.1 25.49375 31 24.59375 L 31 22.6875 L 19 22.6875 z" color="#000" overflow="visible" enable-background="accumulate" font-family="Bitstream Vera Sans"/>
</svg>