<svg xmlns="http://www.w3.org/2000/svg" width="100" height="100" viewBox="0 0 50 50">
    <path d="M 2.8125 8 A 1.0001 1.0001 0 0 0 2 9 L 2 38 L 1 38 A 1.0001 1.0001 0 0 0 0.90625 38 A 1.0001 1.0001 0 0 0 0 39 L 0 44 A 1.0001 1.0001 0 0 0 1 45 L 49 45 A 1.0001 1.0001 0 0 0 50 44 L 50 39 A 1.0001 1.0001 0 0 0 49 38 L 48 38 L 48 9 A 1.0001 1.0001 0 0 0 47 8 L 3 8 A 1.0001 1.0001 0 0 0 2.90625 8 A 1.0001 1.0001 0 0 0 2.8125 8 z M 4 10 L 46 10 L 46 38 L 36.90625 38 L 21.90625 38 L 23 36 L 21.90625 34 L 11 34 L 11 38 L 4 38 L 4 10 z M 39 14.96875 A 1.0001 1.0001 0 0 0 38.84375 15 A 1.0001 1.0001 0 0 0 38.40625 15.1875 L 25.03125 24.71875 L 19.625 20.21875 A 1.0001 1.0001 0 0 0 18.40625 20.1875 L 10.40625 26.1875 A 1.0063276 1.0063276 0 1 0 11.59375 27.8125 L 18.96875 22.28125 L 24.375 26.78125 A 1.0001 1.0001 0 0 0 25.59375 26.8125 L 39.59375 16.8125 A 1.0001 1.0001 0 0 0 39 14.96875 z M 2 40 L 36.90625 40 L 48 40 L 48 43 L 2 43 L 2 40 z"/>
</svg>