<svg xmlns="http://www.w3.org/2000/svg" width="100" height="100" viewBox="0 0 50 50">
    <path style="text-indent:0;text-align:start;line-height:normal;text-transform:none;block-progression:tb;-inkscape-font-specification:Bitstream Vera Sans" d="M 21 0 C 15.3545 0 10.230156 1.0122381 6.4375 2.71875 C 4.5411719 3.5720059 2.9801672 4.6031002 1.84375 5.8125 C 0.76240536 6.9632904 0.064612699 8.3230316 0 9.78125 A 1.0001 1.0001 0 0 0 0 9.9375 C -0.00027047539 9.9588265 0 9.9786316 0 10 L 0 19.8125 A 1.0001 1.0001 0 0 0 0 20 L 0 29.8125 A 1.0001 1.0001 0 0 0 0 30 L 0 39 C 0 41.801676 2.2210907 44.114064 5.4375 45.78125 C 8.6539093 47.448436 13.014182 48.57322 17.9375 48.90625 A 1.0019512 1.0019512 0 0 0 18.0625 46.90625 C 13.361818 46.58828 9.2213407 45.491564 6.34375 44 C 3.4661593 42.508436 2 40.712324 2 39 L 2 34.34375 C 3.1223185 35.486391 4.6228131 36.464729 6.4375 37.28125 C 10.230156 38.987762 15.3545 40 21 40 A 1.0001 1.0001 0 1 0 21 38 C 15.5975 38 10.726594 36.987738 7.28125 35.4375 C 5.5585781 34.662381 4.1998328 33.756819 3.3125 32.8125 C 2.4251672 31.868181 2 30.94323 2 30 A 1.0001 1.0001 0 0 0 2 29.8125 L 2 24.34375 C 3.1223185 25.486391 4.6228131 26.464729 6.4375 27.28125 C 10.230156 28.987762 15.3545 30 21 30 C 23.884131 30 26.623685 29.737109 29.125 29.25 A 1.002073 1.002073 0 0 0 28.75 27.28125 C 26.383315 27.742141 23.759869 28 21 28 C 15.5975 28 10.726594 26.987738 7.28125 25.4375 C 5.5585781 24.662381 4.1998328 23.756819 3.3125 22.8125 C 2.4251672 21.868181 2 20.94323 2 20 A 1.0001 1.0001 0 0 0 2 19.8125 L 2 14.34375 C 3.1223185 15.486391 4.6228131 16.464729 6.4375 17.28125 C 10.230156 18.987762 15.3545 20 21 20 C 26.6455 20 31.769844 18.987762 35.5625 17.28125 C 37.377187 16.464729 38.877682 15.486391 40 14.34375 L 40 19 A 1.0001 1.0001 0 1 0 42 19 L 42 10 C 42 9.9679475 42.000608 9.9382079 42 9.90625 A 1.0001 1.0001 0 0 0 42 9.8125 C 41.999597 9.8018796 42.00047 9.7918595 42 9.78125 A 1.0001 1.0001 0 0 0 41.96875 9.71875 C 41.886646 8.2854063 41.221422 6.9460797 40.15625 5.8125 C 39.019833 4.6031002 37.458828 3.5720059 35.5625 2.71875 C 31.769844 1.0122381 26.6455 0 21 0 z M 21 2 C 26.4025 2 31.273406 3.0122619 34.71875 4.5625 C 36.441422 5.3376191 37.800167 6.2431811 38.6875 7.1875 C 39.574833 8.1318189 40 9.0567701 40 10 C 40 10.94323 39.574833 11.868181 38.6875 12.8125 C 37.800167 13.756819 36.441422 14.662381 34.71875 15.4375 C 31.273406 16.987738 26.4025 18 21 18 C 15.5975 18 10.726594 16.987738 7.28125 15.4375 C 5.5585781 14.662381 4.1998328 13.756819 3.3125 12.8125 C 2.4251672 11.868181 2 10.94323 2 10 A 1.0001 1.0001 0 0 0 2 9.90625 C 2.0264271 8.9943602 2.4536179 8.101541 3.3125 7.1875 C 4.1998328 6.2431811 5.5585781 5.3376191 7.28125 4.5625 C 10.726594 3.0122619 15.5975 2 21 2 z M 41 22 C 36.042362 22 32 26.041333 32 31 C 32 31.763353 32.257312 32.447773 32.4375 33.15625 A 1.0001 1.0001 0 0 0 32.40625 33.1875 L 22.28125 43.3125 A 1.0001 1.0001 0 0 0 22 44 L 22 49 A 1.0001 1.0001 0 0 0 23 50 L 28 50 A 1.0001 1.0001 0 0 0 28.71875 49.71875 L 29.4375 49 L 32 49 A 1.0001 1.0001 0 0 0 33 48 L 33 46 L 35 46 A 1.0001 1.0001 0 0 0 36 45 L 36 43 L 38 43 A 1.0001 1.0001 0 0 0 39 42 L 39 39.59375 C 39.661492 39.749461 40.292077 40 41 40 C 45.957638 40 50 35.958667 50 31 C 50 26.041333 45.957638 22 41 22 z M 41 24 C 44.876362 24 48 27.122667 48 31 C 48 34.877333 44.876362 38 41 38 C 37.123638 38 34 34.877333 34 31 C 34 27.122667 37.123638 24 41 24 z M 44 27 C 42.895431 27 42 27.89543 42 29 C 42 30.104569 42.895431 31 44 31 C 45.104569 31 46 30.104569 46 29 C 46 27.89543 45.104569 27 44 27 z M 33.1875 35.21875 C 33.467447 35.734221 33.816059 36.207377 34.1875 36.65625 L 27.21875 43.65625 A 1.0001 1.0001 0 1 0 28.625 45.0625 L 35.65625 38.0625 C 36.086575 38.389917 36.514328 38.690664 37 38.9375 L 37 41 L 35 41 A 1.0001 1.0001 0 0 0 34 42 L 34 44 L 32 44 A 1.0001 1.0001 0 0 0 31 45 L 31 47 L 29 47 A 1.0001 1.0001 0 0 0 28.28125 47.28125 L 27.5625 48 L 24 48 L 24 44.4375 L 33.1875 35.21875 z" color="#000" overflow="visible" enable-background="accumulate" font-family="Bitstream Vera Sans"/>
</svg>