<svg xmlns="http://www.w3.org/2000/svg" width="100" height="100" viewBox="0 0 50 50">
    <path style="text-indent:0;text-align:start;line-height:normal;text-transform:none;block-progression:tb;-inkscape-font-specification:Bitstream Vera Sans" d="M 29 4.53125 C 23.784882 4.53125 19.372258 7.6509567 17.25 12.0625 C 16.120721 11.285822 14.812373 10.71875 13.34375 10.71875 C 9.6186448 10.71875 6.6461092 13.6699 6.4375 17.34375 C 2.7116509 18.688873 0 22.164595 0 26.34375 C 0 31.672129 4.3269841 36 9.65625 36 L 18 36 A 1.0001 1.0001 0 1 0 18 34 L 9.65625 34 C 5.4075159 34 2 30.591371 2 26.34375 C 2 22.807381 4.3841655 19.833261 7.625 18.9375 A 1.0001 1.0001 0 0 0 8.34375 17.9375 C 8.33875 17.797485 8.34375 17.725319 8.34375 17.71875 C 8.34375 14.941236 10.565073 12.71875 13.34375 12.71875 C 14.732666 12.71875 15.999111 13.278692 16.90625 14.1875 A 1.0001 1.0001 0 0 0 18.53125 13.84375 C 20.103851 9.593873 24.192878 6.53125 29 6.53125 C 35.170594 6.53125 40.15625 11.517887 40.15625 17.6875 C 40.15625 18.142598 40.12028 18.594543 40.0625 19.0625 A 1.0001 1.0001 0 0 0 41.03125 20.1875 L 41.09375 20.1875 C 44.918391 20.1875 48 23.27008 48 27.09375 C 48 30.91742 44.918544 34 41.09375 34 L 32 34 A 1.0001 1.0001 0 1 0 32 36 L 41.09375 36 C 45.998956 36 50 31.99808 50 27.09375 C 50 22.543696 46.508006 18.927126 42.09375 18.40625 C 42.10944 18.165177 42.15625 17.937552 42.15625 17.6875 C 42.15625 10.437113 36.251406 4.53125 29 4.53125 z M 24.90625 24.96875 A 1.0001 1.0001 0 0 0 24.78125 25 A 1.0001 1.0001 0 0 0 24 26 L 24 43.5625 L 20.71875 40.28125 A 1.0001 1.0001 0 0 0 19.78125 40 A 1.0001 1.0001 0 0 0 19.28125 41.71875 L 24.28125 46.71875 L 25 47.40625 L 25.71875 46.71875 L 30.71875 41.71875 A 1.016466 1.016466 0 1 0 29.28125 40.28125 L 26 43.5625 L 26 26 A 1.0001 1.0001 0 0 0 24.90625 24.96875 z" color="#000" overflow="visible" enable-background="accumulate" font-family="Bitstream Vera Sans"/>
</svg>