<svg xmlns="http://www.w3.org/2000/svg" viewBox="0 0 50 50" enable-background="new 0 0 50 50" width="100" height="100">
    <path style="text-indent:0;text-align:start;line-height:normal;text-transform:none;block-progression:tb;-inkscape-font-specification:Bitstream Vera Sans" d="M 22 0 C 19.790196 0 18 1.7901961 18 4 L 18 20 C 18 22.209804 19.790196 24 22 24 L 37.625 24 L 45.34375 30.75 A 1.0001 1.0001 0 0 0 47 30 L 47 23.8125 C 48.715169 23.361577 50 21.857085 50 20 L 50 4 C 50 1.7901961 48.209804 0 46 0 L 22 0 z M 22 2 L 46 2 C 47.190196 2 48 2.8098039 48 4 L 48 20 C 48 21.190196 47.190196 22 46 22 A 1.0001 1.0001 0 0 0 45 23 L 45 27.8125 L 38.65625 22.25 A 1.0001 1.0001 0 0 0 38 22 L 22 22 C 20.809804 22 20 21.190196 20 20 L 20 4 C 20 2.8098039 20.809804 2 22 2 z M 33 6.09375 L 30.5 17.59375 L 32.3125 17.59375 L 32.90625 14.59375 L 35.09375 14.59375 L 35.6875 17.59375 L 37.5 17.59375 L 35.09375 6.09375 L 33 6.09375 z M 34 8 L 34.09375 8 C 34.19375 8.8 34.3 9.89375 34.5 10.59375 L 35 13.1875 L 33.09375 13.1875 L 33.59375 10.59375 C 33.69375 9.89375 33.9 8.8 34 8 z M 4 19 C 1.7901961 19 0 20.790196 0 23 L 0 39 C 0 40.857085 1.2848308 42.361577 3 42.8125 L 3 49 A 1.0001 1.0001 0 0 0 4.65625 49.75 L 12.375 43 L 28 43 C 30.209804 43 32 41.209804 32 39 L 32 25 L 30 25 L 30 39 C 30 40.190196 29.190196 41 28 41 L 12 41 A 1.0001 1.0001 0 0 0 11.34375 41.25 L 5 46.8125 L 5 42 A 1.0001 1.0001 0 0 0 4 41 C 2.8098039 41 2 40.190196 2 39 L 2 23 C 2 21.809804 2.8098039 21 4 21 L 17 21 L 17 19 L 4 19 z M 15.59375 25 C 13.29375 25 12 27.4125 12 30.8125 C 12 34.7125 13.30625 36.6875 15.40625 36.6875 C 15.50625 36.6875 15.70625 36.80625 15.90625 36.90625 C 16.60625 37.30625 17.7875 37.9125 18.6875 38.3125 L 19.3125 36.90625 C 18.6125 36.70625 17.79375 36.39375 17.09375 36.09375 L 17.09375 36 C 18.19375 35.4 18.90625 33.6875 18.90625 30.6875 C 18.90625 27.5875 17.99375 25 15.59375 25 z M 15.5 26.5 C 16.6 26.5 17 28.4875 17 30.6875 C 17 33.0875 16.6 35.09375 15.5 35.09375 C 14.3 35.09375 13.90625 33.0875 13.90625 30.6875 C 13.90625 28.5875 14.3 26.5 15.5 26.5 z" color="#000" overflow="visible" enable-background="accumulate" font-family="Bitstream Vera Sans"/>
</svg>