<svg xmlns="http://www.w3.org/2000/svg" viewBox="0 0 50 50" enable-background="new 0 0 50 50" width="100" height="100">
    <path style="text-indent:0;text-align:start;line-height:normal;text-transform:none;block-progression:tb;-inkscape-font-specification:Bitstream Vera Sans" d="M 17.8125 3 C 14.645833 3 12 5.8866667 12 9 L 12 41 C 12 42.872581 12.919155 44.393162 14.09375 45.40625 C 15.268345 46.419338 16.683333 47 18 47 L 32.40625 47 C 35.46625 47 38 44.46625 38 41.40625 L 38 8.59375 C 38 5.53375 35.46625 3 32.40625 3 L 17.8125 3 z M 17.8125 5 L 32.40625 5 C 34.34625 5 36 6.65375 36 8.59375 L 36 41.40625 C 36 43.34625 34.34625 45 32.40625 45 L 18 45 C 17.316667 45 16.231655 44.618162 15.40625 43.90625 C 14.580845 43.194338 14 42.227419 14 41 L 14 9 C 14 7.1133333 15.979167 5 17.8125 5 z M 16.8125 8 A 1.0001 1.0001 0 0 0 16 9 L 16 40 A 1.0001 1.0001 0 0 0 17 41 L 33 41 A 1.0001 1.0001 0 0 0 34 40 L 34 9 A 1.0001 1.0001 0 0 0 33 8 L 17 8 A 1.0001 1.0001 0 0 0 16.90625 8 A 1.0001 1.0001 0 0 0 16.8125 8 z M 18 10 L 32 10 L 32 39 L 18 39 L 18 10 z M 25 41.5 C 24.171573 41.5 23.5 42.171573 23.5 43 C 23.5 43.828427 24.171573 44.5 25 44.5 C 25.828427 44.5 26.5 43.828427 26.5 43 C 26.5 42.171573 25.828427 41.5 25 41.5 z" color="#000" overflow="visible" enable-background="accumulate" font-family="Bitstream Vera Sans"/>
</svg>