<svg xmlns="http://www.w3.org/2000/svg" viewBox="0 0 50 50" enable-background="new 0 0 50 50" width="100" height="100">
    <path style="text-indent:0;text-align:start;line-height:normal;text-transform:none;block-progression:tb;-inkscape-font-specification:Bitstream Vera Sans" d="M 25 0 C 14.711131 0 5.8483847 6.1763434 2 15.125 L 2 9 A 1.0001 1.0001 0 0 0 0.78125 8 A 1.0001 1.0001 0 0 0 0 9 L 0 18 L 0 19.4375 L 1.34375 18.9375 L 9.34375 15.9375 A 1.0001 1.0001 0 1 0 8.65625 14.0625 L 3.875 15.875 C 7.422903 7.6677559 15.527422 2 25 2 C 37.763659 2 48 12.236341 48 25 A 1.0001 1.0001 0 1 0 50 25 C 50 11.163659 38.836341 0 25 0 z M 24.875 6.3125 C 20.18258 6.4179476 17.213416 8.3153925 15.9375 11.25 C 14.722401 14.044728 14.976908 17.561897 15.84375 21.21875 C 15.378281 21.765687 14.997582 22.533484 15.09375 23.6875 L 15.09375 23.71875 L 15.09375 23.75 C 15.260194 24.970588 15.627277 25.827497 16.09375 26.4375 C 16.321954 26.735921 16.654456 26.740973 16.9375 26.90625 C 17.105397 27.986916 17.427694 29.054976 17.875 29.9375 C 18.128614 30.437874 18.381049 30.878756 18.65625 31.25 C 18.782232 31.419949 18.962772 31.515284 19.09375 31.65625 C 19.10556 32.940352 19.14617 33.931108 19 35.21875 C 18.506279 36.379279 16.969287 37.226215 14.8125 38.09375 C 12.844116 38.885502 10.505725 39.672581 8.53125 41.09375 C 4.4885662 36.95492 2 31.284189 2 25 A 1.0001 1.0001 0 0 0 0.78125 24 A 1.0001 1.0001 0 0 0 0 25 C 0 38.836341 11.163659 50 25 50 C 31.476337 50 37.394552 47.518026 41.84375 43.46875 A 1.0001 1.0001 0 0 0 42.40625 42.90625 C 44.762703 40.622574 46.6791 37.891129 48 34.84375 L 48 41 A 1.0001 1.0001 0 1 0 50 41 L 50 32 L 50 30.5625 L 48.65625 31.0625 L 40.65625 34.0625 A 1.0001 1.0001 0 1 0 41.34375 35.9375 L 46.125 34.125 C 44.976294 36.759254 43.340971 39.13828 41.34375 41.15625 C 39.408488 39.703445 37.095859 38.924293 35.125 38.125 C 32.951833 37.24366 31.398142 36.372066 30.90625 35.21875 C 30.829519 33.893899 30.81297 32.87936 30.8125 31.625 C 30.930486 31.490625 31.105607 31.407929 31.21875 31.25 C 31.485664 30.877433 31.754883 30.434544 32 29.9375 C 32.431995 29.061511 32.765941 27.990021 32.96875 26.9375 C 33.289793 26.774313 33.657315 26.763031 33.90625 26.4375 C 34.387755 25.80784 34.669748 24.914027 34.78125 23.6875 C 34.86934 22.630463 34.567276 21.860912 34.09375 21.28125 C 34.614087 19.678163 35.229701 17.117068 35.03125 14.5 C 34.92229 13.063091 34.542308 11.630827 33.6875 10.4375 C 32.915843 9.3602537 31.663622 8.6201187 30.09375 8.28125 C 29.03533 6.8674576 27.111401 6.3125 24.90625 6.3125 L 24.875 6.3125 z M 24.90625 8.3125 C 24.91874 8.3125 24.92507 8.3124552 24.9375 8.3125 C 26.934359 8.3197 28.209545 8.8815416 28.625 9.59375 L 28.875 10.03125 L 29.375 10.09375 C 30.748239 10.286862 31.504808 10.815202 32.0625 11.59375 C 32.620192 12.372298 32.94021 13.455659 33.03125 14.65625 C 33.21333 17.057432 32.519634 19.876276 32.0625 21.15625 L 31.75 22 L 32.53125 22.40625 C 32.523543 22.434675 32.85239 22.765997 32.8125 23.5 C 32.811 23.51632 32.8141 23.51519 32.8125 23.53125 C 32.72051 24.473313 32.478171 25.002103 32.3125 25.21875 C 32.144005 25.43909 32.060417 25.40625 32.09375 25.40625 L 31.21875 25.40625 L 31.125 26.25 C 30.996056 27.152608 30.628515 28.200337 30.21875 29.03125 C 30.013867 29.446706 29.776836 29.838192 29.59375 30.09375 C 29.410664 30.349308 29.229253 30.48507 29.3125 30.4375 L 28.8125 30.71875 L 28.8125 31.3125 C 28.8125 32.8125 28.8045 33.934021 28.90625 35.5625 L 28.90625 35.71875 L 28.96875 35.84375 C 29.813805 38.053895 32.093364 39.04342 34.375 39.96875 C 36.273463 40.738682 38.27355 41.489206 39.84375 42.5625 C 35.835605 45.953685 30.661914 48 25 48 C 19.267357 48 14.045792 45.931394 10.03125 42.5 C 11.634427 41.440678 13.659522 40.702944 15.5625 39.9375 C 17.835856 39.023077 20.095499 38.045906 20.9375 35.84375 L 20.96875 35.75 L 21 35.625 C 21.212085 33.928317 21.09375 32.768056 21.09375 31.3125 L 21.09375 30.71875 L 20.59375 30.4375 C 20.66809 30.47998 20.471674 30.319381 20.28125 30.0625 C 20.090826 29.805619 19.865136 29.443376 19.65625 29.03125 C 19.238478 28.206997 18.86378 27.17906 18.78125 26.3125 L 18.71875 25.40625 L 17.875 25.40625 C 17.840129 25.389375 17.748015 25.33875 17.65625 25.21875 C 17.478664 24.986522 17.230786 24.451164 17.09375 23.53125 C 17.09205 23.5112 17.09475 23.51956 17.09375 23.5 C 17.09155 23.48438 17.09595 23.4846 17.09375 23.46875 C 17.07772 22.710532 17.548752 22.290415 17.46875 22.34375 L 18.03125 21.9375 L 17.875 21.25 C 16.952145 17.607151 16.807166 14.302893 17.78125 12.0625 C 18.752632 9.8283223 20.722691 8.4141553 24.90625 8.3125 z" color="#000" overflow="visible" enable-background="accumulate" font-family="Bitstream Vera Sans"/>
</svg>