<svg xmlns="http://www.w3.org/2000/svg" viewBox="0 0 50 50" enable-background="new 0 0 50 50" width="100" height="100">
    <path style="text-indent:0;text-align:start;line-height:normal;text-transform:none;block-progression:tb;-inkscape-font-specification:Bitstream Vera Sans" d="M 10 0 C 6.6981362 0 4 2.6981362 4 6 C 4 9.3018638 6.6981362 12 10 12 C 13.301864 12 16 9.3018638 16 6 C 16 2.6981362 13.301864 0 10 0 z M 40 0 C 36.698136 0 34 2.6981362 34 6 C 34 9.3018638 36.698136 12 40 12 C 43.301864 12 46 9.3018638 46 6 C 46 2.6981362 43.301864 0 40 0 z M 10 2 C 12.220984 2 14 3.7790164 14 6 C 14 8.2209836 12.220984 10 10 10 C 7.7790164 10 6 8.2209836 6 6 C 6 3.7790164 7.7790164 2 10 2 z M 40 2 C 42.220984 2 44 3.7790164 44 6 C 44 8.2209836 42.220984 10 40 10 C 37.779016 10 36 8.2209836 36 6 C 36 3.7790164 37.779016 2 40 2 z M 10.5 13 C 9.1487179 13 8.0506209 13.09821 7.0625 13.46875 C 5.9888696 13.871361 5.1479249 14.555542 4.65625 15.375 C 4.3259855 15.925441 3.4949352 17.38513 2.71875 18.9375 C 2.3306574 19.713685 1.9478671 20.510302 1.65625 21.21875 C 1.3646329 21.927198 1.138581 22.497366 1.09375 23.125 C 1.023235 23.900668 1.3352403 24.321647 1.625 24.90625 C 1.9147597 25.490853 2.290967 26.13117 2.65625 26.78125 C 3.3868159 28.08141 4 29.561806 4 29.90625 C 4 30.917361 4.133619 31.660343 4.625 32.25 C 4.8141996 32.477039 5.0402634 32.634901 5.28125 32.75 C 5.1237035 36.620128 4.8511391 39.661508 4.625 41.84375 C 4.3788156 44.219429 4.1550685 45.562558 4.09375 46.28125 C 4.0923 46.2921 4.09512 46.30166 4.09375 46.3125 C 3.9768168 47.234383 4.121859 48.127741 4.625 48.84375 C 5.1340575 49.568178 6.0380952 50 7 50 C 7.8666667 50 8.5718188 49.556727 9.09375 49 C 9.4363836 48.634524 9.5364663 48.116743 9.6875 47.625 C 9.739006 47.983913 9.68273 48.331805 9.875 48.6875 C 10.270513 49.4192 11.148611 50 12.1875 50 C 13.159722 50 14.039845 49.609343 14.53125 49 C 15.022655 48.390657 15.169801 47.706718 15.28125 47.09375 A 1.0001 1.0001 0 0 0 15.28125 47.0625 C 16.260747 41.479366 16.666229 33.644228 16.875 27.4375 C 16.970392 27.45919 17.054265 27.477277 17.15625 27.5 C 17.77499 27.637862 18.500822 27.758983 19.21875 27.90625 C 20.654605 28.200784 22.126061 28.701802 22.4375 28.96875 C 23.241712 29.658074 24.027399 30.016332 24.8125 29.96875 A 1.0097184 1.0097184 0 0 0 25.46875 29.9375 C 25.684463 29.85121 26.119986 29.635041 26.8125 29.3125 C 27.505014 28.989959 28.411723 28.581732 29.3125 28.125 C 30.213277 27.668268 31.105007 27.184022 31.875 26.71875 C 32.332349 26.442394 32.723079 26.206444 33.0625 25.9375 C 33.171418 31.861026 33.58675 40.227354 34.625 47.0625 A 1.0001 1.0001 0 0 0 34.625 47.15625 C 34.777024 47.713671 34.937375 48.363119 35.40625 48.96875 C 35.875125 49.574381 36.715278 50 37.6875 50 C 38.726389 50 39.643646 49.456731 40.0625 48.71875 C 40.255251 48.379141 40.166158 48.01267 40.21875 47.65625 C 40.35888 48.127572 40.419324 48.635116 40.75 49 C 41.266607 49.57005 42.022917 50 42.90625 50 C 43.868155 50 44.772192 49.568178 45.28125 48.84375 C 45.784388 48.127746 45.898179 47.234377 45.78125 46.3125 C 45.780839 46.3076 45.781676 46.28625 45.78125 46.28125 C 45.71993 45.562552 45.527432 44.219403 45.28125 41.84375 C 45.060012 39.708802 44.814606 36.748031 44.65625 33 C 45.129894 32.984254 45.749357 32.875646 46.25 32.375 C 46.803557 31.821443 47 31.02963 47 30 C 47 29.655556 47.613184 28.17516 48.34375 26.875 C 48.709033 26.22492 49.08524 25.584603 49.375 25 C 49.66476 24.415397 49.976765 23.994418 49.90625 23.21875 C 49.86142 22.591116 49.635367 22.052198 49.34375 21.34375 C 49.052133 20.635302 48.669343 19.838685 48.28125 19.0625 C 47.505065 17.51013 46.674014 16.050441 46.34375 15.5 C 46.2795 15.392915 45.81099 14.491541 44.78125 13.96875 C 43.75151 13.445959 42.189744 13.09375 39.5 13.09375 C 37.360569 13.09375 35.788411 13.377053 34.65625 13.8125 C 33.572401 14.229365 32.868775 14.780904 32.53125 15.5625 L 32.5 15.5625 C 32.5 15.5625 32.47005 15.65361 32.46875 15.65625 C 32.42921 15.73692 31.814957 16.928749 31.15625 18.34375 C 30.816104 19.074435 30.466745 19.84522 30.1875 20.5 C 29.980143 20.986216 29.893473 21.32447 29.78125 21.6875 C 29.78032 21.6905 29.75092 21.6845 29.75 21.6875 C 29.630093 21.77504 29.451075 21.940328 29.21875 22.09375 C 28.736493 22.412222 28.064903 22.808646 27.40625 23.21875 C 26.214737 23.960636 25.246443 24.554986 25.03125 24.6875 C 24.702831 24.520978 24.347973 24.359445 23.96875 24.21875 C 23.292508 23.967859 22.564707 23.750672 21.84375 23.53125 C 21.122793 23.311828 20.411458 23.089046 19.90625 22.90625 C 19.653646 22.81485 19.466475 22.749839 19.34375 22.6875 C 18.547907 20.717599 17.862905 18.973392 17.25 17.625 C 16.607239 16.210925 16.064504 15.180799 15.28125 14.46875 C 13.969149 13.287859 12.133333 13 10.5 13 z M 10.5 15 C 11.866667 15 13.249601 15.318391 13.9375 15.9375 C 14.254246 16.225451 14.799011 17.132825 15.40625 18.46875 C 16.013489 19.804675 16.710612 21.582834 17.5625 23.6875 A 1.0001 1.0001 0 0 0 17.6875 23.875 C 17.945055 24.235577 18.191866 24.343979 18.4375 24.46875 C 18.683134 24.593521 18.922916 24.70546 19.21875 24.8125 C 19.810417 25.026579 20.533457 25.219422 21.25 25.4375 C 21.966543 25.655578 22.685617 25.872766 23.28125 26.09375 C 23.876883 26.314734 24.369201 26.573293 24.46875 26.65625 C 24.944911 27.053051 25.045829 27.324136 25.0625 27.4375 C 25.07917 27.550864 25.05107 27.613719 24.9375 27.75 C 24.764462 27.957646 24.727399 27.966332 24.6875 27.96875 C 24.6476 27.97115 24.345788 27.94818 23.75 27.4375 C 22.661439 26.504448 21.114145 26.242966 19.625 25.9375 C 18.880428 25.784767 18.153135 25.655888 17.59375 25.53125 C 17.073824 25.415404 16.715038 25.295537 16.71875 25.3125 C 16.718783 25.312651 16.718647 25.28107 16.71875 25.28125 C 16.6456 25.171522 16.530358 24.971622 16.40625 24.75 C 16.158033 24.306756 15.827523 23.717546 15.53125 23.125 C 14.938704 21.939907 14.40625 20.78125 14.40625 20.78125 A 1.0001 1.0001 0 1 0 12.59375 21.625 C 12.59375 21.625 13.142546 22.816343 13.75 24.03125 C 14.053727 24.638704 14.379467 25.255744 14.65625 25.75 C 14.768185 25.949883 14.870957 26.096399 14.96875 26.25 A 1.0004882 1.0004882 0 0 0 14.90625 26.5625 C 14.706708 32.848077 14.291792 41.136784 13.3125 46.71875 C 13.223949 47.205782 13.102345 47.584343 12.96875 47.75 C 12.835155 47.915657 12.715278 48 12.1875 48 C 11.726389 48 11.729487 47.9433 11.625 47.75 C 11.52658 47.567915 11.475046 47.149808 11.5 46.75 C 11.5016 46.73896 11.4984 46.72978 11.5 46.71875 C 11.500943 46.70643 11.4989 46.69982 11.5 46.6875 C 12.302573 41.130716 12.295321 36.173605 12.09375 32.34375 A 1.0001 1.0001 0 0 0 11.09375 31.40625 L 11 31.40625 A 1.0001 1.0001 0 0 0 10 32.3125 C 9.4060056 39.539432 8.03125 46.71875 8.03125 46.71875 A 1.0001 1.0001 0 0 0 8 46.90625 C 8 47.072917 7.8843188 47.412977 7.65625 47.65625 C 7.4281812 47.899523 7.1333333 48 7 48 C 6.5619048 48 6.4221925 47.888072 6.28125 47.6875 C 6.1403075 47.486928 6.018182 47.09801 6.09375 46.53125 A 1.0001 1.0001 0 0 0 6.09375 46.46875 C 6.134205 45.983295 6.3728937 44.464076 6.625 42.03125 C 6.8608824 39.754985 7.1246778 36.58913 7.28125 32.53125 A 1.0001 1.0001 0 0 0 7.3125 31.5625 L 7.40625 21.71875 A 1.0001 1.0001 0 0 0 6.375 20.6875 A 1.0001 1.0001 0 0 0 5.53125 21.1875 L 4.84375 22.40625 A 1.0001 1.0001 0 0 0 5.375 23.875 L 5.34375 27.59375 C 5.0483836 26.996036 4.7058281 26.401262 4.375 25.8125 C 4.002783 25.15008 3.6508653 24.493522 3.40625 24 C 3.2227885 23.629859 3.1584439 23.273495 3.125 23.21875 C 3.1485001 23.084115 3.2582646 22.587267 3.5 22 C 3.7615079 21.364698 4.1255926 20.592565 4.5 19.84375 C 5.2488148 18.34612 6.0740145 16.855809 6.34375 16.40625 C 6.4520751 16.225708 7.2236304 15.541139 7.75 15.34375 C 8.3618791 15.114295 9.2512821 15 10.5 15 z M 39.5 15.09375 C 42.010256 15.09375 43.27974 15.447791 43.875 15.75 C 44.47026 16.052209 44.420501 16.107085 44.65625 16.5 C 44.925986 16.949559 45.751185 18.43987 46.5 19.9375 C 46.874407 20.686315 47.238492 21.458448 47.5 22.09375 C 47.741735 22.681017 47.8515 23.177865 47.875 23.3125 C 47.841557 23.376034 47.777215 23.754859 47.59375 24.125 C 47.349135 24.618522 46.997217 25.24383 46.625 25.90625 C 45.880566 27.23109 45 28.544444 45 30 C 45 30.77037 44.840193 30.972307 44.84375 30.96875 C 44.847307 30.965193 44.816667 31 44.5 31 C 44.308333 31 44.285861 30.985562 44.21875 30.90625 C 44.151639 30.826938 44 30.560417 44 29.90625 C 44 29.766667 44.09658 29.223144 44.3125 28.625 C 44.528415 28.026856 44.857768 27.340272 45.15625 26.65625 C 45.454732 25.972228 45.746767 25.300616 45.96875 24.71875 C 46.079742 24.427817 46.153043 24.169598 46.21875 23.90625 C 46.28446 23.642902 46.391256 23.408775 46.28125 22.96875 A 1.0001 1.0001 0 0 0 46.25 22.875 C 46.15121 22.578641 46.060108 22.483294 45.9375 22.28125 C 45.814892 22.079206 45.672097 21.855083 45.5 21.59375 C 45.155806 21.071085 44.740194 20.438416 44.34375 19.84375 A 1.0140613 1.0140613 0 0 0 42.5 20.46875 L 42.40625 20.46875 C 42.40625 20.46875 42.685561 25.393094 42.40625 28 C 42.171468 28.657032 42 29.267573 42 29.90625 C 42 30.786602 42.179826 31.506372 42.59375 32.0625 C 42.747419 36.358536 43.035998 39.664561 43.28125 42.03125 C 43.533356 44.464076 43.772045 45.983295 43.8125 46.46875 A 1.0001 1.0001 0 0 0 43.8125 46.53125 C 43.88807 47.09801 43.76594 47.486928 43.625 47.6875 C 43.484058 47.888072 43.344345 48 42.90625 48 C 42.689583 48 42.427143 47.8862 42.21875 47.65625 C 42.010357 47.4263 41.90625 47.10625 41.90625 46.90625 A 1.0001 1.0001 0 0 0 41.875 46.71875 C 41.875 46.71875 40.600985 39.557589 39.90625 32.3125 A 1.0001 1.0001 0 0 0 38.90625 31.40625 L 38.8125 31.40625 A 1.0001 1.0001 0 0 0 37.8125 32.34375 C 37.609161 36.207198 37.697694 41.252748 38.40625 46.71875 A 1.0001 1.0001 0 0 0 38.40625 46.78125 C 38.47286 47.147594 38.41865 47.531731 38.3125 47.71875 C 38.206354 47.905769 38.148611 48 37.6875 48 C 37.159722 48 37.131125 47.919369 37 47.75 C 36.882761 47.598567 36.725698 47.207491 36.59375 46.75 C 36.59085 46.73096 36.59665 46.70657 36.59375 46.6875 C 35.414874 38.889449 35 28.639426 35 23 L 34.90625 23 A 1.0001 1.0001 0 0 0 33.75 22 A 1.0001 1.0001 0 0 0 33.0625 22.46875 C 32.595564 23.215848 32.273304 23.751479 32.09375 24.09375 C 32.094083 24.093306 31.542507 24.577772 30.84375 25 C 30.144993 25.422228 29.280473 25.900482 28.40625 26.34375 C 27.903393 26.59872 27.468781 26.782167 27 27 C 26.931257 26.680038 26.817315 26.360279 26.625 26.0625 C 27.101957 25.774044 27.54436 25.513064 28.46875 24.9375 C 29.135097 24.522604 29.801007 24.087778 30.3125 23.75 C 30.568246 23.581111 30.797538 23.438486 30.96875 23.3125 C 31.05436 23.24951 31.137786 23.196798 31.21875 23.125 C 31.25923 23.0891 31.28003 23.0445 31.34375 22.96875 C 31.38955 22.9143 31.473507 22.722433 31.53125 22.5 L 31.59375 22.5 C 31.59535 22.492 31.766745 21.90147 32.03125 21.28125 C 32.295755 20.66103 32.633896 19.906815 32.96875 19.1875 C 33.638457 17.74887 34.3125 16.4375 34.3125 16.4375 A 1.0001 1.0001 0 0 0 34.34375 16.34375 C 34.32861 16.38412 34.557161 16.002053 35.375 15.6875 C 36.192839 15.372947 37.539431 15.09375 39.5 15.09375 z" color="#000" overflow="visible" enable-background="accumulate" font-family="Bitstream Vera Sans"/>
</svg>