<svg xmlns="http://www.w3.org/2000/svg" width="100" height="100" viewBox="0 0 50 50">
    <path style="text-indent:0;text-align:start;line-height:normal;text-transform:none;block-progression:tb;-inkscape-font-specification:Bitstream Vera Sans" d="M 38.5 5 C 34.705035 5 30.043918 6.7132597 27.5 8.125 A 1.0001 1.0001 0 0 0 28 10 C 29.070261 10 29.775161 10.282604 30.4375 10.75 C 31.099839 11.217396 31.684239 11.901876 32.34375 12.65625 C 33.662773 14.164998 35.412785 16 38.5 16 C 41.525577 16 44 13.525577 44 10.5 C 44 7.4744232 41.525577 5 38.5 5 z M 38.5 7 C 40.444423 7 42 8.5555768 42 10.5 C 42 12.444423 40.444423 14 38.5 14 C 36.148215 14 35.178727 12.835002 33.875 11.34375 C 33.223136 10.598124 32.52563 9.7826043 31.59375 9.125 C 31.429953 9.0094126 31.211322 8.9458475 31.03125 8.84375 C 33.393966 7.8974391 36.21125 7 38.5 7 z M 27.53125 11 C 26.501796 11 25.567463 11.450614 24.5625 12.03125 C 23.557537 12.611886 22.494642 13.353033 21.40625 14.15625 C 18.741989 16.122298 16.633244 17.761051 15.34375 18.8125 C 14.578124 19.438695 13 21.127518 13 23.84375 C 13 25.377796 13.876593 26.576296 14.875 27.46875 C 15.873407 28.361204 17.038558 29.04528 17.96875 29.625 C 19.737467 30.727115 21.940975 32.117575 22.5 32.46875 L 21.375 41.53125 L 21.375 41.59375 L 21.375 41.65625 C 21.375 41.65625 21.34669 42.364151 21.65625 43.125 C 21.956972 43.864122 22.745915 44.759602 23.96875 44.96875 L 24.0625 45 C 25.336778 45.170414 26.333263 44.505164 26.84375 43.875 C 27.354237 43.244836 27.53125 42.59375 27.53125 42.59375 L 27.5625 42.53125 L 27.5625 42.46875 C 27.5625 42.46875 29.171193 33.724807 29.4375 32.0625 C 29.560676 31.294074 29.773643 30.536667 29.625 29.625 C 29.476357 28.713333 28.877543 27.820966 27.8125 27.0625 C 26.346006 26.018299 24.932489 25.268751 23.9375 24.71875 C 24.524668 24.265456 24.907283 23.9848 25.90625 23.21875 C 26.698354 22.611331 27.496039 21.974621 28.125 21.5 C 28.43948 21.26269 28.70592 21.084558 28.90625 20.9375 C 29.10658 20.790442 29.344266 20.648089 29.21875 20.71875 C 29.358637 20.63986 29.319731 20.64701 29.40625 20.59375 C 29.705145 20.988597 30.245948 21.705853 30.84375 22.5 C 31.52608 23.406439 32.120921 24.198409 32.3125 24.4375 C 32.569536 24.758281 33.300482 25.480757 34.65625 25.8125 C 36.271942 26.208076 42.215694 27.611149 43.09375 27.8125 C 43.907009 27.998728 44.684482 27.9655 45.375 27.65625 C 46.065518 27.347 46.612293 26.738385 46.84375 26 C 47.37323 24.314998 46.144893 22.612169 44.34375 22.15625 C 42.96971 21.808443 38.014786 20.744251 37.46875 20.625 C 37.304522 20.412976 36.337792 19.158244 35.09375 17.53125 C 33.750036 15.773904 32.262026 13.787618 31.90625 13.25 C 30.836538 11.637628 29.142002 11 27.53125 11 z M 27.53125 13 C 28.690498 13 29.506462 13.301372 30.21875 14.375 C 30.717974 15.129382 32.151464 16.986346 33.5 18.75 C 34.848536 20.513654 36.09375 22.125 36.09375 22.125 L 36.3125 22.40625 L 36.65625 22.46875 C 36.65625 22.46875 42.575174 23.772639 43.84375 24.09375 C 44.760607 24.325831 45.06602 24.997252 44.9375 25.40625 C 44.86396 25.640865 44.768482 25.7515 44.5625 25.84375 C 44.356518 25.936 44.014991 25.985772 43.53125 25.875 C 42.717306 25.688351 36.703308 24.261424 35.125 23.875 C 34.126768 23.630743 34.117964 23.490719 33.875 23.1875 C 33.81658 23.11459 33.11917 22.186811 32.4375 21.28125 C 31.75583 20.375689 31.057682 19.446737 30.8125 19.125 C 30.620393 18.873016 30.377575 18.622416 30.03125 18.5 C 29.684925 18.377584 29.281727 18.41376 29.03125 18.5 C 28.530296 18.672474 28.330033 18.905987 28.21875 18.96875 C 27.991984 19.096411 27.931885 19.156042 27.71875 19.3125 C 27.505615 19.468958 27.255879 19.665998 26.9375 19.90625 C 26.300742 20.386754 25.481771 21.015919 24.6875 21.625 C 23.098958 22.843162 21.5625 24.03125 21.5625 24.03125 L 20.34375 24.96875 L 21.6875 25.6875 C 21.6875 25.6875 24.920691 27.451714 26.65625 28.6875 C 27.460207 29.260034 27.596643 29.571917 27.65625 29.9375 C 27.71586 30.303083 27.60557 30.896426 27.46875 31.75 C 27.233263 33.219928 25.654947 41.869169 25.625 42.03125 C 25.62472 42.03275 25.59375 42.125 25.59375 42.125 C 25.5695 42.19407 25.477525 42.382711 25.28125 42.625 C 25.052737 42.907086 24.870222 43.074586 24.3125 43 C 23.767508 42.927116 23.640938 42.721401 23.5 42.375 C 23.359062 42.028599 23.375 41.6875 23.375 41.6875 L 23.34375 41.6875 L 24.59375 32.0625 L 24.65625 31.4375 L 24.125 31.09375 C 24.125 31.09375 21.024594 29.148334 19.03125 27.90625 C 18.058442 27.29997 16.996593 26.695296 16.21875 26 C 15.440907 25.304704 15 24.630704 15 23.84375 C 15 21.917982 16.160626 20.754805 16.625 20.375 C 17.881506 19.350449 19.954011 17.729202 22.59375 15.78125 C 23.669358 14.987467 24.691713 14.253114 25.5625 13.75 C 26.433287 13.246886 27.147704 13 27.53125 13 z M 10 30 C 4.4889972 30 0 34.488997 0 40 C 0 45.511003 4.4889972 50 10 50 C 15.511003 50 20 45.511003 20 40 C 20 34.488997 15.511003 30 10 30 z M 40 30 C 34.488997 30 30 34.488997 30 40 C 30 45.511003 34.488997 50 40 50 C 45.511003 50 50 45.511003 50 40 C 50 34.488997 45.511003 30 40 30 z M 10 32 C 14.430123 32 18 35.569877 18 40 C 18 44.430123 14.430123 48 10 48 C 5.5698774 48 2 44.430123 2 40 C 2 35.569877 5.5698774 32 10 32 z M 40 32 C 44.430123 32 48 35.569877 48 40 C 48 44.430123 44.430123 48 40 48 C 35.569877 48 32 44.430123 32 40 C 32 35.569877 35.569877 32 40 32 z" color="#000" overflow="visible" enable-background="accumulate" font-family="Bitstream Vera Sans"/>
</svg>