<svg xmlns="http://www.w3.org/2000/svg" viewBox="0 0 50 50" enable-background="new 0 0 50 50" width="100" height="100">
    <path style="text-indent:0;text-align:start;line-height:normal;text-transform:none;block-progression:tb;-inkscape-font-specification:Bitstream Vera Sans" d="M 25.1875 0 C 11.512753 0 0.40625 9.7897614 0.40625 22.09375 C 0.40625 28.09742 3.1104215 33.504442 7.53125 37.53125 C 7.3818965 40.441998 6.1014328 42.650003 4.5625 44.3125 C 2.9568465 46.047075 1.2343085 47.080414 0.34375 47.84375 A 1.0001 1.0001 0 0 0 0.75 49.5625 C 4.2082936 50.49569 8.1309684 49.823761 11.75 48.53125 C 15.201039 47.298736 18.299597 45.492493 20.46875 43.71875 C 21.993062 43.985143 23.559596 44.1875 25.1875 44.1875 C 38.765872 44.1875 50 34.403437 50 22.09375 C 50 9.7840634 38.765872 0 25.1875 0 z M 25.1875 2 C 37.809128 2 48 11.003437 48 22.09375 C 48 33.184063 37.809128 42.1875 25.1875 42.1875 C 23.565931 42.1875 21.92802 42.009941 20.375 41.71875 A 1.0001 1.0001 0 0 0 19.5625 41.9375 C 17.63455 43.583311 14.474718 45.448761 11.09375 46.65625 C 8.5412778 47.567847 5.9456431 47.875601 3.5625 47.75 C 4.4154389 47.10643 5.0047558 46.796413 6.03125 45.6875 C 7.8505965 43.722075 9.5393901 40.915222 9.59375 37.21875 A 1.0001 1.0001 0 0 0 9.25 36.4375 C 4.9392419 32.70151 2.40625 27.688665 2.40625 22.09375 C 2.40625 10.997739 12.462247 2 25.1875 2 z M 24.96875 10 C 22.527546 10.05548 20.794325 11.127257 20.0625 12.75 C 19.394559 14.231087 19.513172 15.961091 19.9375 17.75 C 19.700557 18.116601 19.553115 18.55551 19.625 19.09375 L 19.59375 19.09375 C 19.59625 19.12077 19.62203 19.12958 19.625 19.15625 C 19.72288 20.035101 20.142114 20.601454 20.65625 20.96875 C 20.767159 21.462953 20.879349 21.968766 21.09375 22.375 C 21.236913 22.646256 21.39041 22.875915 21.5625 23.09375 C 21.59203 23.13113 21.65793 23.15126 21.6875 23.1875 L 21.6875 24.59375 C 21.577823 24.798047 21.351881 25.047735 20.8125 25.3125 C 20.219667 25.603502 19.390896 25.886304 18.53125 26.25 C 17.671604 26.613696 16.756445 27.069633 16 27.8125 C 15.243555 28.555367 14.683987 29.614026 14.59375 30.9375 L 14.53125 32 L 15.59375 32 L 34.59375 32 L 35.6875 32 L 35.59375 30.90625 C 35.474352 29.563019 34.893452 28.495283 34.125 27.75 C 33.356548 27.004717 32.454034 26.544849 31.59375 26.1875 C 30.733466 25.830151 29.919045 25.562208 29.34375 25.28125 C 28.812127 25.02162 28.589067 24.815325 28.5 24.625 C 28.45808 24.162387 28.48168 23.723542 28.5 23.1875 C 28.53202 23.14567 28.59385 23.10517 28.625 23.0625 C 28.788912 22.837964 28.934338 22.583901 29.0625 22.3125 C 29.257075 21.900458 29.371445 21.423166 29.46875 20.9375 C 29.597139 20.83987 29.778543 20.84489 29.875 20.71875 C 30.178973 20.321247 30.350623 19.837199 30.46875 19.1875 L 30.5 19.15625 C 30.59122 18.608913 30.41973 18.158984 30.1875 17.78125 C 30.44198 16.924904 30.704314 15.777632 30.59375 14.5 C 30.52711 13.729987 30.323702 12.906306 29.8125 12.21875 C 29.34158 11.585373 28.573009 11.140336 27.65625 10.96875 C 26.971396 10.338415 26.051334 10 25 10 L 24.96875 10 z M 25 12 C 25.01773 12 25.0139 11.999824 25.03125 12 C 25.912387 12.0089 26.327546 12.256944 26.46875 12.46875 L 26.71875 12.84375 L 27.1875 12.90625 C 27.762965 12.97818 27.983077 13.131306 28.1875 13.40625 C 28.391923 13.681194 28.547886 14.126263 28.59375 14.65625 C 28.68548 15.716225 28.361101 17.082668 28.15625 17.65625 L 27.875 18.5 L 28.5 18.84375 C 28.43061 19.187092 28.349185 19.343914 28.3125 19.40625 L 27.6875 19.40625 L 27.59375 20.3125 C 27.55951 20.65487 27.418677 21.111552 27.25 21.46875 C 27.16566 21.647349 27.095463 21.818286 27.03125 21.90625 L 26.5 22.1875 L 26.5 22.8125 C 26.5 23.529167 26.383462 24.098946 26.5 25.03125 L 26.53125 25.125 L 26.5625 25.21875 C 26.892966 26.168841 27.669045 26.718458 28.4375 27.09375 C 29.205955 27.469042 30.047784 27.744849 30.8125 28.0625 C 31.577216 28.380151 32.274702 28.726533 32.75 29.1875 C 32.954004 29.385353 32.986999 29.752151 33.125 30 L 17.0625 30 C 17.192158 29.763979 17.210407 29.411078 17.40625 29.21875 C 17.868555 28.764742 18.547146 28.417554 19.3125 28.09375 C 20.077854 27.769946 20.911583 27.474623 21.6875 27.09375 C 22.463417 26.712877 23.259517 26.184012 23.625 25.25 L 23.6875 25.09375 L 23.6875 24.90625 L 23.6875 22.8125 L 23.6875 22.1875 L 23.25 21.96875 C 23.253781 21.970892 23.225086 21.941757 23.21875 21.9375 L 23.15625 21.90625 C 23.150101 21.899497 23.162482 21.882888 23.15625 21.875 C 23.08147 21.78034 22.969337 21.616244 22.875 21.4375 C 22.686326 21.080013 22.530953 20.622031 22.5 20.3125 L 22.40625 19.40625 L 21.71875 19.40625 C 21.69793 19.36673 21.62695 19.271503 21.59375 18.90625 L 21.59375 18.875 L 21.59375 18.84375 L 22.1875 18.53125 L 21.96875 17.75 C 21.500838 16.018726 21.456825 14.489757 21.875 13.5625 C 22.290264 12.641696 23.071378 12.051733 25 12 z" color="#000" overflow="visible" enable-background="accumulate" font-family="Bitstream Vera Sans"/>
</svg>